# xmcd
# 
# Track frame offsets:
#     182
#     14752
#     28050
#     39967
#     50652
#     62587
#     79782
#     93172
#     106495
#     122317
#     133057
#     144282
#     158225
#     169642
# 
# Disc length: 2432
# 
# Revision: 1
# Processed by: cddbd v1.5.2PL0 Copyright (c) Steve Scherf et al.
# Submitted via: fre:ac v1.0.31
# 
DISCID=b0097e0e
DTITLE=Roots of Rhythm - Stand by me
DYEAR=1999
DGENRE=R&B
TTITLE0=The Spinners - I'll Be Around
TTITLE1=Ben E. King - Stand By Me
TTITLE2=Aretha Franklin - Baby, I Love You
TTITLE3=Bobby Bland - These Hands (Small but Mighty)
TTITLE4=Ruth Brown - I'll Wait for You
TTITLE5=Bill Withers - Lean on Me
TTITLE6=The Four Tops - Reach Out I'll Be There
TTITLE7=Joe Tex - The Love You Save (May Be Your Own)
TTITLE8=The Chi-Lites - Oh Girl
TTITLE9=Etta James - Tell Mama
TTITLE10=Sam and Dave - Hold On I'm Comin'
TTITLE11=Al Green  - Call Me (Come BAck Home)
TTITLE12=Solomon Burke - Cry to Me
TTITLE13=Jackie Wilson - (Your Love Keeps Lifting Me) Higher and Higher
EXTD=
EXTT0=
EXTT1=
EXTT2=
EXTT3=
EXTT4=
EXTT5=
EXTT6=
EXTT7=
EXTT8=
EXTT9=
EXTT10=
EXTT11=
EXTT12=
EXTT13=
PLAYORDER=
